<svg xmlns="http://www.w3.org/2000/svg" xmlns:xlink="http://www.w3.org/1999/xlink" contentStyleType="text/css" data-diagram-type="CLASS" height="305.2083px" preserveAspectRatio="none" style="width:572px;height:305px;" version="1.1" viewBox="0 0 572 305" width="572.9167px" zoomAndPan="magnify"><defs><filter height="300%" id="f9z6ex8dlmf3l" width="300%" x="-1" y="-1"><feGaussianBlur result="blurOut" stdDeviation="2.0833"/><feColorMatrix in="blurOut" result="blurOut2" type="matrix" values="0 0 0 0 0 0 0 0 0 0 0 0 0 0 0 0 0 0 .4 0"/><feOffset dx="4.1667" dy="4.1667" in="blurOut2" result="blurOut3"/><feBlend in="SourceGraphic" in2="blurOut3" mode="normal"/></filter><linearGradient id="g9z6ex8dlmf3l0" x1="50%" x2="50%" y1="0%" y2="100%"><stop offset="0%" stop-color="#2196F3"/><stop offset="100%" stop-color="#1A78C2"/></linearGradient></defs><g><!--class Bitmap--><g class="entity" data-entity="Bitmap" data-source-line="10" data-uid="ent0002" id="entity_Bitmap"><rect fill="none" filter="url(#f9z6ex8dlmf3l)" height="269.9219" rx="4.1667" ry="4.1667" style="stroke:#2196F3;stroke-width:1.0417;" width="241.5212" x="313.8333" y="17.7083"/><rect fill="url(#g9z6ex8dlmf3l0)" height="48.2259" rx="4.1667" ry="4.1667" style="stroke:url(#g9z6ex8dlmf3l0);stroke-width:1.0417;" width="241.5212" x="313.8333" y="17.7083"/><rect fill="url(#g9z6ex8dlmf3l0)" height="4.1667" style="stroke:url(#g9z6ex8dlmf3l0);stroke-width:1.0417;" width="241.5212" x="313.8333" y="61.7676"/><rect fill="none" height="269.9219" rx="4.1667" ry="4.1667" style="stroke:#2196F3;stroke-width:1.0417;" width="241.5212" x="313.8333" y="17.7083"/><ellipse cx="393.9237" cy="41.8213" fill="#FFFFFF" rx="10.4167" ry="10.4167" style="stroke:#CCCCCC;stroke-width:1.0417;"/><path d="M395.828,46.2484 Q395.4048,46.46 394.9328,46.5739 Q394.4608,46.6878 393.9562,46.6878 Q392.1007,46.6878 391.1242,45.4834 Q390.1639,44.2627 390.1639,41.9678 Q390.1639,39.6566 391.1242,38.4521 Q392.1007,37.2314 393.9562,37.2314 Q394.4608,37.2314 394.9328,37.3454 Q395.4211,37.443 395.828,37.6709 L395.828,39.6729 Q395.3722,39.2497 394.9328,39.0544 Q394.4933,38.8428 394.0376,38.8428 Q393.0448,38.8428 392.5402,39.6403 Q392.0356,40.4215 392.0356,41.9678 Q392.0356,43.4977 392.5402,44.279 Q393.0448,45.0602 394.0376,45.0602 Q394.4933,45.0602 394.9328,44.8649 Q395.3722,44.6696 395.828,44.2464 L395.828,46.2484 Z " fill="#2196F3"/><text fill="#FFFFFF" font-family="Verdana" font-size="14.5833" lengthAdjust="spacing" textLength="52.1739" x="424.132" y="46.8699">Bitmap</text><line style="stroke:#2196F3;stroke-width:1.0417;" x1="314.875" x2="554.3129" y1="65.9342" y2="65.9342"/><rect fill="none" height="6.25" style="stroke:#1A78C2;stroke-width:1.0417;" width="6.25" x="322.1667" y="85.6242"/><text fill="#222222" font-family="Verdana" font-size="11.4583" lengthAdjust="spacing" textLength="55.1544" x="344.0417" y="91.1535">data: u32</text><line style="stroke:#2196F3;stroke-width:1.0417;" x1="314.875" x2="554.3129" y1="108.4391" y2="108.4391"/><ellipse cx="325.2917" cy="131.2541" fill="none" rx="3.125" ry="3.125" style="stroke:#1A78C2;stroke-width:1.0417;"/><text fill="#222222" font-family="Verdana" font-size="11.4583" lengthAdjust="spacing" textLength="84.7626" x="344.0417" y="133.6583">new() : Bitmap</text><ellipse cx="325.2917" cy="165.4256" fill="none" rx="3.125" ry="3.125" style="stroke:#1A78C2;stroke-width:1.0417;"/><text fill="#222222" font-family="Verdana" font-size="11.4583" lengthAdjust="spacing" textLength="130.3777" x="344.0417" y="167.8299">set(index: usize) : void</text><ellipse cx="325.2917" cy="199.5972" fill="none" rx="3.125" ry="3.125" style="stroke:#1A78C2;stroke-width:1.0417;"/><text fill="#222222" font-family="Verdana" font-size="11.4583" lengthAdjust="spacing" textLength="141.1311" x="344.0417" y="202.0014">clear(index: usize) : void</text><ellipse cx="325.2917" cy="233.7687" fill="none" rx="3.125" ry="3.125" style="stroke:#1A78C2;stroke-width:1.0417;"/><text fill="#222222" font-family="Verdana" font-size="11.4583" lengthAdjust="spacing" textLength="131.9107" x="344.0417" y="236.173">get(index: usize) : bool</text><ellipse cx="325.2917" cy="267.9403" fill="none" rx="3.125" ry="3.125" style="stroke:#1A78C2;stroke-width:1.0417;"/><text fill="#222222" font-family="Verdana" font-size="11.4583" lengthAdjust="spacing" textLength="194.6462" x="344.0417" y="270.3445">find_first_unset() : Option&lt;usize&gt;</text></g><!--class IrqAllocator--><g class="entity" data-entity="IrqAllocator" data-source-line="20" data-uid="ent0003" id="entity_IrqAllocator"><rect fill="none" filter="url(#f9z6ex8dlmf3l)" height="201.5788" rx="4.1667" ry="4.1667" style="stroke:#2196F3;stroke-width:1.0417;" width="182.5846" x="17.7083" y="51.875"/><rect fill="url(#g9z6ex8dlmf3l0)" height="48.2259" rx="4.1667" ry="4.1667" style="stroke:url(#g9z6ex8dlmf3l0);stroke-width:1.0417;" width="182.5846" x="17.7083" y="51.875"/><rect fill="url(#g9z6ex8dlmf3l0)" height="4.1667" style="stroke:url(#g9z6ex8dlmf3l0);stroke-width:1.0417;" width="182.5846" x="17.7083" y="95.9342"/><rect fill="none" height="201.5788" rx="4.1667" ry="4.1667" style="stroke:#2196F3;stroke-width:1.0417;" width="182.5846" x="17.7083" y="51.875"/><ellipse cx="53.1515" cy="75.988" fill="#FFFFFF" rx="10.4167" ry="10.4167" style="stroke:#CCCCCC;stroke-width:1.0417;"/><path d="M55.0558,80.415 Q54.6326,80.6266 54.1606,80.7406 Q53.6886,80.8545 53.1841,80.8545 Q51.3286,80.8545 50.352,79.6501 Q49.3917,78.4294 49.3917,76.1344 Q49.3917,73.8232 50.352,72.6188 Q51.3286,71.3981 53.1841,71.3981 Q53.6886,71.3981 54.1606,71.512 Q54.6489,71.6097 55.0558,71.8376 L55.0558,73.8395 Q54.6001,73.4163 54.1606,73.221 Q53.7212,73.0094 53.2654,73.0094 Q52.2726,73.0094 51.768,73.807 Q51.2635,74.5882 51.2635,76.1344 Q51.2635,77.6644 51.768,78.4456 Q52.2726,79.2269 53.2654,79.2269 Q53.7212,79.2269 54.1606,79.0316 Q54.6001,78.8363 55.0558,78.4131 L55.0558,80.415 Z " fill="#2196F3"/><text fill="#FFFFFF" font-family="Verdana" font-size="14.5833" lengthAdjust="spacing" textLength="84.1461" x="81.7454" y="81.0366">IrqAllocator</text><line style="stroke:#2196F3;stroke-width:1.0417;" x1="18.75" x2="199.2513" y1="100.1009" y2="100.1009"/><rect fill="none" height="6.25" style="stroke:#1A78C2;stroke-width:1.0417;" width="6.25" x="26.0417" y="119.7909"/><text fill="#222222" font-family="Verdana" font-size="11.4583" lengthAdjust="spacing" textLength="88.9028" x="47.9167" y="125.3201">bitmap: Bitmap</text><line style="stroke:#2196F3;stroke-width:1.0417;" x1="18.75" x2="199.2513" y1="142.6058" y2="142.6058"/><ellipse cx="29.1667" cy="165.4207" fill="none" rx="3.125" ry="3.125" style="stroke:#1A78C2;stroke-width:1.0417;"/><text fill="#222222" font-family="Verdana" font-size="11.4583" lengthAdjust="spacing" textLength="109.8836" x="47.9167" y="167.825">new() : IrqAllocator</text><ellipse cx="29.1667" cy="199.5923" fill="none" rx="3.125" ry="3.125" style="stroke:#1A78C2;stroke-width:1.0417;"/><text fill="#222222" font-family="Verdana" font-size="11.4583" lengthAdjust="spacing" textLength="133.7067" x="47.9167" y="201.9966">alloc() : Option&lt;usize&gt;</text><ellipse cx="29.1667" cy="233.7638" fill="none" rx="3.125" ry="3.125" style="stroke:#1A78C2;stroke-width:1.0417;"/><text fill="#222222" font-family="Verdana" font-size="11.4583" lengthAdjust="spacing" textLength="135.7096" x="47.9167" y="236.1681">free(index: usize) : void</text></g><!--link IrqAllocator to Bitmap--><g class="link" data-entity-1="IrqAllocator" data-entity-2="Bitmap" data-source-line="28" data-uid="lnk4" id="link_IrqAllocator_Bitmap"><path codeLine="28" d="M200.5833,152.6667 C235.5417,152.6667 269.7917,152.6667 307.125,152.6667" fill="none" id="IrqAllocator-to-Bitmap" style="stroke:#2196F3;stroke-width:3.125;"/><polygon fill="#2196F3" points="313.375,152.6667,304,148.5,308.1667,152.6667,304,156.8333,313.375,152.6667" style="stroke:#2196F3;stroke-width:3.125;"/><text fill="#222222" font-family="Verdana" font-size="12.5" lengthAdjust="spacing" textLength="28.6377" x="243" y="139.2694">uses</text></g><!--SRC=[VP3DJiCm48JlVehbLeHyuETKeKg0XCI90mzGRPDDiwhZ3VQ6ebQyEtRgggs8E5dhcV7EvojjgIFeK2amMXdKiITZ73KAAX1utIhK7AXI5czCtB3lCM07bSCOOMy0NiNhYpW9i6rPgTnyy8xWzi7y67EmFhDss8y900irAivXkByxp7OyRi3JTdODy-8kbv5qnhwcxnI8wTri-1AkYrmvml2VOJsHNucu8ZT9MpOSeYu7dtTb_RtFn8-ZVt6YU0kVJyv9XPfuZoohiUn5wJz0vy4YOPudbfLMWMWQAfMvg67julYxsKhn5m00]--></g></svg>