<svg xmlns="http://www.w3.org/2000/svg" xmlns:xlink="http://www.w3.org/1999/xlink" contentStyleType="text/css" data-diagram-type="CLASS" height="1018.75px" preserveAspectRatio="none" style="width:1729px;height:1018px;" version="1.1" viewBox="0 0 1729 1018" width="1729.1667px" zoomAndPan="magnify"><defs><filter height="300%" id="f1tt4wgxlxqig1" width="300%" x="-1" y="-1"><feGaussianBlur result="blurOut" stdDeviation="2.0833"/><feColorMatrix in="blurOut" result="blurOut2" type="matrix" values="0 0 0 0 0 0 0 0 0 0 0 0 0 0 0 0 0 0 .4 0"/><feOffset dx="4.1667" dy="4.1667" in="blurOut2" result="blurOut3"/><feBlend in="SourceGraphic" in2="blurOut3" mode="normal"/></filter><linearGradient id="g1tt4wgxlxqig10" x1="50%" x2="50%" y1="0%" y2="100%"><stop offset="0%" stop-color="#2196F3"/><stop offset="100%" stop-color="#1A78C2"/></linearGradient></defs><g><!--class IPCItem--><g class="entity" data-entity="IPCItem" data-source-line="8" data-uid="ent0002" id="entity_IPCItem"><rect fill="none" filter="url(#f1tt4wgxlxqig1)" height="366.9271" rx="4.1667" ry="4.1667" style="stroke:#2196F3;stroke-width:1.0417;" width="639.7207" x="556.0104" y="17.7083"/><rect fill="url(#g1tt4wgxlxqig10)" height="65.2018" rx="4.1667" ry="4.1667" style="stroke:url(#g1tt4wgxlxqig10);stroke-width:1.0417;" width="639.7207" x="556.0104" y="17.7083"/><rect fill="url(#g1tt4wgxlxqig10)" height="4.1667" style="stroke:url(#g1tt4wgxlxqig10);stroke-width:1.0417;" width="639.7207" x="556.0104" y="78.7435"/><rect fill="none" height="366.9271" rx="4.1667" ry="4.1667" style="stroke:#2196F3;stroke-width:1.0417;" width="639.7207" x="556.0104" y="17.7083"/><ellipse cx="804.8126" cy="50.3092" fill="#FFFFFF" rx="10.4167" ry="10.4167" style="stroke:#CCCCCC;stroke-width:1.0417;"/><path d="M806.7169,54.7363 Q806.2937,54.9479 805.8217,55.0618 Q805.3497,55.1758 804.8452,55.1758 Q802.9897,55.1758 802.0131,53.9714 Q801.0528,52.7507 801.0528,50.4557 Q801.0528,48.1445 802.0131,46.9401 Q802.9897,45.7194 804.8452,45.7194 Q805.3497,45.7194 805.8217,45.8333 Q806.31,45.931 806.7169,46.1589 L806.7169,48.1608 Q806.2612,47.7376 805.8217,47.5423 Q805.3823,47.3307 804.9265,47.3307 Q803.9337,47.3307 803.4291,48.1283 Q802.9246,48.9095 802.9246,50.4557 Q802.9246,51.9857 803.4291,52.7669 Q803.9337,53.5482 804.9265,53.5482 Q805.3823,53.5482 805.8217,53.3529 Q806.2612,53.1576 806.7169,52.7344 L806.7169,54.7363 Z " fill="#2196F3"/><text fill="#FFFFFF" font-family="Verdana" font-size="29.1667" lengthAdjust="spacing" textLength="112.9496" x="835.0209" y="60.4065">IPCItem</text><line style="stroke:#2196F3;stroke-width:1.0417;" x1="557.0521" x2="1194.6894" y1="82.9102" y2="82.9102"/><ellipse cx="567.4688" cy="112.3942" fill="none" rx="3.125" ry="3.125" style="stroke:#1A78C2;stroke-width:1.0417;"/><text fill="#222222" font-family="Verdana" font-size="22.9167" lengthAdjust="spacing" textLength="98.9512" x="586.2188" y="118.7653">vec: u32</text><ellipse cx="567.4688" cy="159.904" fill="none" rx="3.125" ry="3.125" style="stroke:#1A78C2;stroke-width:1.0417;"/><text fill="#222222" font-family="Verdana" font-size="22.9167" lengthAdjust="spacing" textLength="181.7891" x="586.2188" y="166.275">cid: CoroutineId</text><ellipse cx="567.4688" cy="207.4137" fill="none" rx="3.125" ry="3.125" style="stroke:#1A78C2;stroke-width:1.0417;"/><text fill="#222222" font-family="Verdana" font-size="22.9167" lengthAdjust="spacing" textLength="161.9385" x="586.2188" y="213.7848">msg_info: u32</text><ellipse cx="567.4688" cy="254.9235" fill="none" rx="3.125" ry="3.125" style="stroke:#1A78C2;stroke-width:1.0417;"/><text fill="#222222" font-family="Verdana" font-size="22.9167" lengthAdjust="spacing" textLength="260.8226" x="586.2188" y="261.2946">extend_msg: [u16; 16]</text><line style="stroke:#2196F3;stroke-width:1.0417;" x1="557.0521" x2="1194.6894" y1="281.2826" y2="281.2826"/><ellipse cx="567.4688" cy="310.7666" fill="none" rx="3.125" ry="3.125" style="stroke:#1A78C2;stroke-width:1.0417;"/><text fill="#222222" font-family="Verdana" font-size="22.9167" lengthAdjust="spacing" textLength="168.9992" x="586.2188" y="317.1377">new(): IPCItem</text><ellipse cx="567.4688" cy="358.2764" fill="none" rx="3.125" ry="3.125" style="stroke:#1A78C2;stroke-width:1.0417;"/><text fill="#222222" font-family="Verdana" font-size="22.9167" lengthAdjust="spacing" textLength="592.8457" x="586.2188" y="364.6474">from(vec: u32, cid: CoroutineId, msg: u32): IPCItem</text></g><!--class ItemsIdxQueue--><g class="entity" data-entity="ItemsIdxQueue" data-source-line="17" data-uid="ent0003" id="entity_ItemsIdxQueue"><rect fill="none" filter="url(#f1tt4wgxlxqig1)" height="271.9076" rx="4.1667" ry="4.1667" style="stroke:#2196F3;stroke-width:1.0417;" width="597.3226" x="577.2083" y="421.4688"/><rect fill="url(#g1tt4wgxlxqig10)" height="65.2018" rx="4.1667" ry="4.1667" style="stroke:url(#g1tt4wgxlxqig10);stroke-width:1.0417;" width="597.3226" x="577.2083" y="421.4688"/><rect fill="url(#g1tt4wgxlxqig10)" height="4.1667" style="stroke:url(#g1tt4wgxlxqig10);stroke-width:1.0417;" width="597.3226" x="577.2083" y="482.5039"/><rect fill="none" height="271.9076" rx="4.1667" ry="4.1667" style="stroke:#2196F3;stroke-width:1.0417;" width="597.3226" x="577.2083" y="421.4688"/><ellipse cx="750.3946" cy="454.0697" fill="#FFFFFF" rx="10.4167" ry="10.4167" style="stroke:#CCCCCC;stroke-width:1.0417;"/><path d="M752.2989,458.4967 Q751.8757,458.7083 751.4037,458.8223 Q750.9317,458.9362 750.4271,458.9362 Q748.5717,458.9362 747.5951,457.7318 Q746.6348,456.5111 746.6348,454.2161 Q746.6348,451.9049 747.5951,450.7005 Q748.5717,449.4798 750.4271,449.4798 Q750.9317,449.4798 751.4037,449.5938 Q751.892,449.6914 752.2989,449.9193 L752.2989,451.9212 Q751.8431,451.498 751.4037,451.3027 Q750.9642,451.0911 750.5085,451.0911 Q749.5157,451.0911 749.0111,451.8887 Q748.5066,452.6699 748.5066,454.2161 Q748.5066,455.7461 749.0111,456.5273 Q749.5157,457.3086 750.5085,457.3086 Q750.9642,457.3086 751.4037,457.1133 Q751.8431,456.918 752.2989,456.4948 L752.2989,458.4967 Z " fill="#2196F3"/><text fill="#FFFFFF" font-family="Verdana" font-size="29.1667" lengthAdjust="spacing" textLength="221.7834" x="780.6029" y="464.1669">ItemsIdxQueue</text><line style="stroke:#2196F3;stroke-width:1.0417;" x1="578.25" x2="1173.4893" y1="486.6706" y2="486.6706"/><rect fill="none" height="6.25" style="stroke:#1A78C2;stroke-width:1.0417;" width="6.25" x="585.5417" y="513.0296"/><text fill="#222222" font-family="Verdana" font-size="22.9167" lengthAdjust="spacing" textLength="550.4476" x="607.4167" y="522.5257">buffer: SafeRingBuffer&lt;usize, MAX_ITEM_NUM&gt;</text><line style="stroke:#2196F3;stroke-width:1.0417;" x1="578.25" x2="1173.4893" y1="542.5137" y2="542.5137"/><ellipse cx="588.6667" cy="571.9977" fill="none" rx="3.125" ry="3.125" style="stroke:#1A78C2;stroke-width:1.0417;"/><text fill="#222222" font-family="Verdana" font-size="22.9167" lengthAdjust="spacing" textLength="254.5115" x="607.4167" y="578.3688">new(): ItemsIdxQueue</text><ellipse cx="588.6667" cy="619.5075" fill="none" rx="3.125" ry="3.125" style="stroke:#1A78C2;stroke-width:1.0417;"/><text fill="#222222" font-family="Verdana" font-size="22.9167" lengthAdjust="spacing" textLength="462.5966" x="607.4167" y="625.8785">write_free_idx(idx: usize): Result&lt;(), ()&gt;</text><ellipse cx="588.6667" cy="667.0173" fill="none" rx="3.125" ry="3.125" style="stroke:#1A78C2;stroke-width:1.0417;"/><text fill="#222222" font-family="Verdana" font-size="22.9167" lengthAdjust="spacing" textLength="346.5363" x="607.4167" y="673.3883">get_first_idx(): Option&lt;usize&gt;</text></g><!--class NewBuffer--><g class="entity" data-entity="NewBuffer" data-source-line="24" data-uid="ent0004" id="entity_NewBuffer"><rect fill="none" filter="url(#f1tt4wgxlxqig1)" height="509.4564" rx="4.1667" ry="4.1667" style="stroke:#2196F3;stroke-width:1.0417;" width="475.8016" x="17.7083" y="302.6979"/><rect fill="url(#g1tt4wgxlxqig10)" height="65.2018" rx="4.1667" ry="4.1667" style="stroke:url(#g1tt4wgxlxqig10);stroke-width:1.0417;" width="475.8016" x="17.7083" y="302.6979"/><rect fill="url(#g1tt4wgxlxqig10)" height="4.1667" style="stroke:url(#g1tt4wgxlxqig10);stroke-width:1.0417;" width="475.8016" x="17.7083" y="363.7331"/><rect fill="none" height="509.4564" rx="4.1667" ry="4.1667" style="stroke:#2196F3;stroke-width:1.0417;" width="475.8016" x="17.7083" y="302.6979"/><ellipse cx="164.7339" cy="335.2988" fill="#FFFFFF" rx="10.4167" ry="10.4167" style="stroke:#CCCCCC;stroke-width:1.0417;"/><path d="M166.6382,339.7259 Q166.215,339.9375 165.743,340.0514 Q165.271,340.1654 164.7664,340.1654 Q162.911,340.1654 161.9344,338.9609 Q160.9741,337.7402 160.9741,335.4453 Q160.9741,333.1341 161.9344,331.9297 Q162.911,330.709 164.7664,330.709 Q165.271,330.709 165.743,330.8229 Q166.2313,330.9206 166.6382,331.1484 L166.6382,333.1504 Q166.1825,332.7272 165.743,332.5319 Q165.3035,332.3203 164.8478,332.3203 Q163.855,332.3203 163.3504,333.1178 Q162.8459,333.8991 162.8459,335.4453 Q162.8459,336.9753 163.3504,337.7565 Q163.855,338.5378 164.8478,338.5378 Q165.3035,338.5378 165.743,338.3424 Q166.1825,338.1471 166.6382,337.724 L166.6382,339.7259 Z " fill="#2196F3"/><text fill="#FFFFFF" font-family="Verdana" font-size="29.1667" lengthAdjust="spacing" textLength="152.5838" x="194.9422" y="345.3961">NewBuffer</text><line style="stroke:#2196F3;stroke-width:1.0417;" x1="18.75" x2="492.4683" y1="367.8997" y2="367.8997"/><ellipse cx="29.1667" cy="397.3838" fill="none" rx="3.125" ry="3.125" style="stroke:#1A78C2;stroke-width:1.0417;"/><text fill="#222222" font-family="Verdana" font-size="22.9167" lengthAdjust="spacing" textLength="326.1932" x="47.9167" y="403.7548">recv_req_status: AtomicBool</text><ellipse cx="29.1667" cy="444.8936" fill="none" rx="3.125" ry="3.125" style="stroke:#1A78C2;stroke-width:1.0417;"/><text fill="#222222" font-family="Verdana" font-size="22.9167" lengthAdjust="spacing" textLength="346.1222" x="47.9167" y="451.2646">recv_reply_status: AtomicBool</text><ellipse cx="29.1667" cy="492.4033" fill="none" rx="3.125" ry="3.125" style="stroke:#1A78C2;stroke-width:1.0417;"/><text fill="#222222" font-family="Verdana" font-size="22.9167" lengthAdjust="spacing" textLength="302.5045" x="47.9167" y="498.7744">req_items: ItemsIdxQueue</text><ellipse cx="29.1667" cy="539.9131" fill="none" rx="3.125" ry="3.125" style="stroke:#1A78C2;stroke-width:1.0417;"/><text fill="#222222" font-family="Verdana" font-size="22.9167" lengthAdjust="spacing" textLength="299.8973" x="47.9167" y="546.2841">res_items: ItemsIdxQueue</text><ellipse cx="29.1667" cy="587.4229" fill="none" rx="3.125" ry="3.125" style="stroke:#1A78C2;stroke-width:1.0417;"/><text fill="#222222" font-family="Verdana" font-size="22.9167" lengthAdjust="spacing" textLength="246.578" x="47.9167" y="593.7939">data: [IPCItem; 4096]</text><ellipse cx="29.1667" cy="634.9326" fill="none" rx="3.125" ry="3.125" style="stroke:#1A78C2;stroke-width:1.0417;"/><text fill="#222222" font-family="Verdana" font-size="22.9167" lengthAdjust="spacing" textLength="422.526" x="47.9167" y="641.3037">idx_allocator: IndexAllocator&lt;4096&gt;</text><line style="stroke:#2196F3;stroke-width:1.0417;" x1="18.75" x2="492.4683" y1="661.2917" y2="661.2917"/><ellipse cx="29.1667" cy="690.7757" fill="none" rx="3.125" ry="3.125" style="stroke:#1A78C2;stroke-width:1.0417;"/><text fill="#222222" font-family="Verdana" font-size="22.9167" lengthAdjust="spacing" textLength="200.1404" x="47.9167" y="697.1468">new(): NewBuffer</text><ellipse cx="29.1667" cy="738.2855" fill="none" rx="3.125" ry="3.125" style="stroke:#1A78C2;stroke-width:1.0417;"/><text fill="#222222" font-family="Verdana" font-size="22.9167" lengthAdjust="spacing" textLength="173.8892" x="47.9167" y="744.6565">get_ptr(): usize</text><ellipse cx="29.1667" cy="785.7952" fill="none" rx="3.125" ry="3.125" style="stroke:#1A78C2;stroke-width:1.0417;"/><text fill="#222222" font-family="Verdana" font-size="22.9167" lengthAdjust="spacing" textLength="428.9266" x="47.9167" y="792.1663">from_ptr(ptr: usize): &amp;mut NewBuffer</text></g><!--class IndexAllocator--><g class="entity" data-entity="IndexAllocator" data-source-line="38" data-uid="ent0005" id="entity_IndexAllocator"><rect fill="none" filter="url(#f1tt4wgxlxqig1)" height="271.9076" rx="4.1667" ry="4.1667" style="stroke:#2196F3;stroke-width:1.0417;" width="359.2712" x="696.2396" y="729.8021"/><rect fill="url(#g1tt4wgxlxqig10)" height="65.2018" rx="4.1667" ry="4.1667" style="stroke:url(#g1tt4wgxlxqig10);stroke-width:1.0417;" width="359.2712" x="696.2396" y="729.8021"/><rect fill="url(#g1tt4wgxlxqig10)" height="4.1667" style="stroke:url(#g1tt4wgxlxqig10);stroke-width:1.0417;" width="359.2712" x="696.2396" y="790.8372"/><rect fill="none" height="271.9076" rx="4.1667" ry="4.1667" style="stroke:#2196F3;stroke-width:1.0417;" width="359.2712" x="696.2396" y="729.8021"/><ellipse cx="756.2961" cy="762.403" fill="#FFFFFF" rx="10.4167" ry="10.4167" style="stroke:#CCCCCC;stroke-width:1.0417;"/><path d="M758.2004,766.8301 Q757.7773,767.0417 757.3053,767.1556 Q756.8333,767.2695 756.3287,767.2695 Q754.4732,767.2695 753.4967,766.0651 Q752.5364,764.8444 752.5364,762.5495 Q752.5364,760.2383 753.4967,759.0339 Q754.4732,757.8132 756.3287,757.8132 Q756.8333,757.8132 757.3053,757.9271 Q757.7935,758.0247 758.2004,758.2526 L758.2004,760.2546 Q757.7447,759.8314 757.3053,759.6361 Q756.8658,759.4245 756.4101,759.4245 Q755.4172,759.4245 754.9127,760.222 Q754.4081,761.0033 754.4081,762.5495 Q754.4081,764.0794 754.9127,764.8607 Q755.4172,765.6419 756.4101,765.6419 Q756.8658,765.6419 757.3053,765.4466 Q757.7447,765.2513 758.2004,764.8281 L758.2004,766.8301 Z " fill="#2196F3"/><text fill="#FFFFFF" font-family="Verdana" font-size="29.1667" lengthAdjust="spacing" textLength="209.9915" x="786.5045" y="772.5002">IndexAllocator</text><line style="stroke:#2196F3;stroke-width:1.0417;" x1="697.2813" x2="1054.4692" y1="795.0039" y2="795.0039"/><line style="stroke:#2196F3;stroke-width:1.0417;" x1="697.2813" x2="1054.4692" y1="803.3372" y2="803.3372"/><rect fill="none" height="6.25" style="stroke:#1A78C2;stroke-width:1.0417;" width="6.25" x="704.5729" y="829.6963"/><text fill="#222222" font-family="Verdana" font-size="22.9167" lengthAdjust="spacing" textLength="312.3962" x="726.4479" y="839.1923">bitmap: [u8; (SIZE + 7) / 8]</text><ellipse cx="707.6979" cy="880.3311" fill="none" rx="3.125" ry="3.125" style="stroke:#1A78C2;stroke-width:1.0417;"/><text fill="#222222" font-family="Verdana" font-size="22.9167" lengthAdjust="spacing" textLength="245.2464" x="726.4479" y="886.7021">new(): IndexAllocator</text><ellipse cx="707.6979" cy="927.8408" fill="none" rx="3.125" ry="3.125" style="stroke:#1A78C2;stroke-width:1.0417;"/><text fill="#222222" font-family="Verdana" font-size="22.9167" lengthAdjust="spacing" textLength="297.2565" x="726.4479" y="934.2119">allocate(): Option&lt;usize&gt;</text><ellipse cx="707.6979" cy="975.3506" fill="none" rx="3.125" ry="3.125" style="stroke:#1A78C2;stroke-width:1.0417;"/><text fill="#222222" font-family="Verdana" font-size="22.9167" lengthAdjust="spacing" textLength="239.0137" x="726.4479" y="981.7216">release(index: usize)</text></g><!--class SafeRingBuffer--><g class="entity" data-entity="SafeRingBuffer" data-source-line="45" data-uid="ent0006" id="entity_SafeRingBuffer"><rect fill="none" filter="url(#f1tt4wgxlxqig1)" height="414.4368" rx="4.1667" ry="4.1667" style="stroke:#2196F3;stroke-width:1.0417;" width="454.127" x="1258.2292" y="350.1979"/><rect fill="url(#g1tt4wgxlxqig10)" height="65.2018" rx="4.1667" ry="4.1667" style="stroke:url(#g1tt4wgxlxqig10);stroke-width:1.0417;" width="454.127" x="1258.2292" y="350.1979"/><rect fill="url(#g1tt4wgxlxqig10)" height="4.1667" style="stroke:url(#g1tt4wgxlxqig10);stroke-width:1.0417;" width="454.127" x="1258.2292" y="411.2331"/><rect fill="none" height="414.4368" rx="4.1667" ry="4.1667" style="stroke:#2196F3;stroke-width:1.0417;" width="454.127" x="1258.2292" y="350.1979"/><ellipse cx="1361.2418" cy="382.7988" fill="#FFFFFF" rx="10.4167" ry="10.4167" style="stroke:#CCCCCC;stroke-width:1.0417;"/><path d="M1363.1461,387.2259 Q1362.7229,387.4375 1362.2509,387.5514 Q1361.7789,387.6654 1361.2743,387.6654 Q1359.4188,387.6654 1358.4423,386.4609 Q1357.482,385.2402 1357.482,382.9453 Q1357.482,380.6341 1358.4423,379.4297 Q1359.4188,378.209 1361.2743,378.209 Q1361.7789,378.209 1362.2509,378.3229 Q1362.7392,378.4206 1363.1461,378.6484 L1363.1461,380.6504 Q1362.6903,380.2272 1362.2509,380.0319 Q1361.8114,379.8203 1361.3557,379.8203 Q1360.3629,379.8203 1359.8583,380.6178 Q1359.3537,381.3991 1359.3537,382.9453 Q1359.3537,384.4753 1359.8583,385.2565 Q1360.3629,386.0378 1361.3557,386.0378 Q1361.8114,386.0378 1362.2509,385.8424 Q1362.6903,385.6471 1363.1461,385.224 L1363.1461,387.2259 Z " fill="#2196F3"/><text fill="#FFFFFF" font-family="Verdana" font-size="29.1667" lengthAdjust="spacing" textLength="218.9351" x="1391.4501" y="392.8961">SafeRingBuffer</text><line style="stroke:#2196F3;stroke-width:1.0417;" x1="1259.2708" x2="1711.3145" y1="415.3997" y2="415.3997"/><rect fill="none" height="6.25" style="stroke:#1A78C2;stroke-width:1.0417;" width="6.25" x="1266.5625" y="441.7588"/><text fill="#222222" font-family="Verdana" font-size="22.9167" lengthAdjust="spacing" textLength="164.9933" x="1288.4375" y="451.2548">data: [T; SIZE]</text><ellipse cx="1269.6875" cy="492.3936" fill="none" rx="3.125" ry="3.125" style="stroke:#1A78C2;stroke-width:1.0417;"/><text fill="#222222" font-family="Verdana" font-size="22.9167" lengthAdjust="spacing" textLength="127.3397" x="1288.4375" y="498.7646">start: usize</text><ellipse cx="1269.6875" cy="539.9033" fill="none" rx="3.125" ry="3.125" style="stroke:#1A78C2;stroke-width:1.0417;"/><text fill="#222222" font-family="Verdana" font-size="22.9167" lengthAdjust="spacing" textLength="117.1346" x="1288.4375" y="546.2744">end: usize</text><ellipse cx="1269.6875" cy="587.4131" fill="none" rx="3.125" ry="3.125" style="stroke:#1A78C2;stroke-width:1.0417;"/><text fill="#222222" font-family="Verdana" font-size="22.9167" lengthAdjust="spacing" textLength="220.8415" x="1288.4375" y="593.7841">count: AtomicUsize</text><line style="stroke:#2196F3;stroke-width:1.0417;" x1="1259.2708" x2="1711.3145" y1="613.7721" y2="613.7721"/><ellipse cx="1269.6875" cy="643.2562" fill="none" rx="3.125" ry="3.125" style="stroke:#1A78C2;stroke-width:1.0417;"/><text fill="#222222" font-family="Verdana" font-size="22.9167" lengthAdjust="spacing" textLength="252.2736" x="1288.4375" y="649.6272">new(): SafeRingBuffer</text><ellipse cx="1269.6875" cy="690.766" fill="none" rx="3.125" ry="3.125" style="stroke:#1A78C2;stroke-width:1.0417;"/><text fill="#222222" font-family="Verdana" font-size="22.9167" lengthAdjust="spacing" textLength="407.252" x="1288.4375" y="697.137">push_safe(item: &amp;T): Result&lt;(), ()&gt;</text><ellipse cx="1269.6875" cy="738.2757" fill="none" rx="3.125" ry="3.125" style="stroke:#1A78C2;stroke-width:1.0417;"/><text fill="#222222" font-family="Verdana" font-size="22.9167" lengthAdjust="spacing" textLength="264.4928" x="1288.4375" y="744.6468">pop_safe(): Option&lt;T&gt;</text></g><!--link ItemsIdxQueue to SafeRingBuffer--><g class="link" data-entity-1="ItemsIdxQueue" data-entity-2="SafeRingBuffer" data-source-line="56" data-uid="lnk7" id="link_ItemsIdxQueue_SafeRingBuffer"><path codeLine="56" d="M1174.8021,557.4167 C1202.7292,557.4167 1224.4688,557.4167 1251.5729,557.4167" fill="none" id="ItemsIdxQueue-to-SafeRingBuffer" style="stroke:#2196F3;stroke-width:3.125;"/><polygon fill="#2196F3" points="1257.8229,557.4167,1248.4479,553.25,1252.6146,557.4167,1248.4479,561.5833,1257.8229,557.4167" style="stroke:#2196F3;stroke-width:3.125;"/></g><!--link NewBuffer to ItemsIdxQueue--><g class="link" data-entity-1="NewBuffer" data-entity-2="ItemsIdxQueue" data-source-line="57" data-uid="lnk8" id="link_NewBuffer_ItemsIdxQueue"><path codeLine="57" d="M493.8854,557.4167 C521.0417,557.4167 542.7292,557.4167 570.5417,557.4167" fill="none" id="NewBuffer-to-ItemsIdxQueue" style="stroke:#2196F3;stroke-width:3.125;"/><polygon fill="#2196F3" points="576.7917,557.4167,567.4167,553.25,571.5833,557.4167,567.4167,561.5833,576.7917,557.4167" style="stroke:#2196F3;stroke-width:3.125;"/></g><!--link NewBuffer to IPCItem--><g class="link" data-entity-1="NewBuffer" data-entity-2="IPCItem" data-source-line="58" data-uid="lnk9" id="link_NewBuffer_IPCItem"><path codeLine="58" d="M493.8854,420.7083 C514.1458,409.0313 529.4286,400.2249 550.1786,388.2666" fill="none" id="NewBuffer-to-IPCItem" style="stroke:#2196F3;stroke-width:3.125;"/><polygon fill="#2196F3" points="555.5938,385.1458,545.3906,386.2169,551.0812,387.7465,549.5516,393.437,555.5938,385.1458" style="stroke:#2196F3;stroke-width:3.125;"/></g><!--link NewBuffer to IndexAllocator--><g class="link" data-entity-1="NewBuffer" data-entity-2="IndexAllocator" data-source-line="59" data-uid="lnk10" id="link_NewBuffer_IndexAllocator"><path codeLine="59" d="M493.7188,680.1979 C514.75,690.8854 535.7396,701.4688 556.0104,711.5833 C601.25,734.1771 644.7073,755.4341 690.499,777.5903" fill="none" id="NewBuffer-to-IndexAllocator" style="stroke:#2196F3;stroke-width:3.125;"/><polygon fill="#2196F3" points="696.125,780.3125,689.5007,772.4786,691.4366,778.044,685.8712,779.98,696.125,780.3125" style="stroke:#2196F3;stroke-width:3.125;"/></g><!--SRC=[TLDDRzD04BtxLmmzWACcWXPKGb9LIgiY-P02RIeX4BAszZXPONlTtN4JG9Kum14km8L3RqYS45AFFV1hIE1ViEkFnWv994lPDn_xvhtP6pJ2225YX9ApbaWfv35QwYMF4oPP15x8bEeHINwI4ZuKCHtnrmYRcuivyCO2CF4z4Ge9un4dB92yecsTMo4612H0yk68mESIFU8Yjl8EpkCzXp3AEgsVeTU1zEwc-UznlmDxGcfwcftZ6onIGvV7WRXEmWbXxBiQxy3pT6Eh2njRBqmWnh7Tw9JT3H984Tdb1KrORD-4h8cELShEhPAbFYd7dpn9CSMCQ-ia3GAK7JXY0HxoUBYRdRTJfGTlGh_tr7K6-tttuBY_KoLKRMJmiTIQkO54TBa_iVMdIPWUElaGLHhIjjreWjt8kWoHt81BHLcoJdcK62tpMtVcV0zmdFF9TTMIdxaIJrr5Z5BLWHw9Y7kxGeILS1A-MfbmwdB3VCa04jNI69YWpuXfPmezkt3lpeFS7qtVPM4eF4P2Y-Z4FavwvNdRf5LLknwdr20XQV1ixDBS3DJVNB-RKKgLMgsETGjQIt_mz-tNsUVlqoy_fnz-pAu-JI_UhSWi55whKruhbe9Jn1ApY-qks4VEitrOX_iDk0tjsbhMQasWq0B_zpIJE4IcqEQch1nlRlPQVGKBAeNqWouO6jdjsbn95TNqqwcSF976L3f_NA85u_eL9f2aQkGg3Tl6VItsOEd69YB9i-Q33R95NUd4x_UNiykhFxykfX-_hVAWlccjriuYmVa3CC7wqYx4YhU-WDOS-WS0]--></g></svg>