<svg width="1653" height="997" xmlns="http://www.w3.org/2000/svg" xmlns:xlink="http://www.w3.org/1999/xlink" xml:space="preserve" overflow="hidden"><defs><clipPath id="clip0"><rect x="3473" y="1157" width="1653" height="997"/></clipPath></defs><g clip-path="url(#clip0)" transform="translate(-3473 -1157)"><rect x="3474" y="1158" width="1650" height="994" fill="#FFFFFF"/><g><path d="M3675.5 1819.56 5073.5 1819.56M3675.5 1697.56 5073.5 1697.56M3675.5 1574.55 5073.5 1574.55M3675.5 1452.55 5073.5 1452.55M3675.5 1330.54 5073.5 1330.54M3675.5 1208.5 5073.5 1208.5" stroke="#D9D9D9" stroke-width="3.4375" stroke-linejoin="round" stroke-miterlimit="10" fill="none"/></g><g><path d="M3790.12 1777.06 3894.13 1777.06 3894.13 1941 3790.12 1941ZM4256.14 1859.06 4360.14 1859.06 4360.14 1941 4256.14 1941ZM4722.15 1898.06 4826.16 1898.06 4826.16 1941 4722.15 1941Z" fill="#156082"/></g><g><path d="M3922.13 1752.06 4027.13 1752.06 4027.13 1941 3922.13 1941ZM4388.14 1635.05 4493.15 1635.05 4493.15 1941 4388.14 1941ZM4854.16 1289.04 4959.16 1289.04 4959.16 1941 4854.16 1941Z" fill="#E97132"/></g><g><path d="M3675.5 1941.5 5073.5 1941.5" stroke="#D9D9D9" stroke-width="3.4375" stroke-linejoin="round" stroke-miterlimit="10" fill="none" fill-rule="evenodd"/></g><g><text fill="#595959" font-family="Aptos Narrow,Aptos Narrow_MSFontService,sans-serif" font-weight="400" font-stretch="semi-condensed" font-size="41" transform="matrix(1 0 0 1 3608.69 1953)">0</text></g><g><text fill="#595959" font-family="Aptos Narrow,Aptos Narrow_MSFontService,sans-serif" font-weight="400" font-stretch="semi-condensed" font-size="41" transform="matrix(1 0 0 1 3525.09 1831)">50000</text></g><g><text fill="#595959" font-family="Aptos Narrow,Aptos Narrow_MSFontService,sans-serif" font-weight="400" font-stretch="semi-condensed" font-size="41" transform="matrix(1 0 0 1 3504.19 1709)">100000</text></g><g><text fill="#595959" font-family="Aptos Narrow,Aptos Narrow_MSFontService,sans-serif" font-weight="400" font-stretch="semi-condensed" font-size="41" transform="matrix(1 0 0 1 3504.19 1586)">150000</text></g><g><text fill="#595959" font-family="Aptos Narrow,Aptos Narrow_MSFontService,sans-serif" font-weight="400" font-stretch="semi-condensed" font-size="41" transform="matrix(1 0 0 1 3504.19 1464)">200000</text></g><g><text fill="#595959" font-family="Aptos Narrow,Aptos Narrow_MSFontService,sans-serif" font-weight="400" font-stretch="semi-condensed" font-size="41" transform="matrix(1 0 0 1 3504.19 1342)">250000</text></g><g><text fill="#595959" font-family="Aptos Narrow,Aptos Narrow_MSFontService,sans-serif" font-weight="400" font-stretch="semi-condensed" font-size="41" transform="matrix(1 0 0 1 3504.19 1220)">300000</text></g><g><text fill="#595959" font-family="Aptos Narrow,Aptos Narrow_MSFontService,sans-serif" font-weight="400" font-stretch="semi-condensed" font-size="41" transform="matrix(1 0 0 1 3894.09 2006)">1</text></g><g><text fill="#595959" font-family="Aptos Narrow,Aptos Narrow_MSFontService,sans-serif" font-weight="400" font-stretch="semi-condensed" font-size="41" transform="matrix(1 0 0 1 4360.1 2006)">2</text></g><g><text fill="#595959" font-family="Aptos Narrow,Aptos Narrow_MSFontService,sans-serif" font-weight="400" font-stretch="semi-condensed" font-size="41" transform="matrix(1 0 0 1 4826.11 2006)">4</text></g><g><rect x="4046" y="2075" width="22" height="22" fill="#156082"/></g><g><text fill="#595959" font-family="DengXian,DengXian_MSFontService,sans-serif" font-weight="400" font-size="41" transform="matrix(1 0 0 1 4077.82 2096)">持续性注册</text></g><g><rect x="4331" y="2075" width="22" height="22" fill="#E97132"/></g><g><text fill="#595959" font-family="DengXian,DengXian_MSFontService,sans-serif" font-weight="400" font-size="41" transform="matrix(1 0 0 1 4362.92 2096)">一次性注册</text></g><rect x="3474.5" y="1158.5" width="1650" height="994" stroke="#D9D9D9" stroke-width="3.4375" stroke-linejoin="round" stroke-miterlimit="10" fill="none"/></g></svg>