<svg width="1548" height="1254" xmlns="http://www.w3.org/2000/svg" xmlns:xlink="http://www.w3.org/1999/xlink" xml:space="preserve" overflow="hidden"><defs><clipPath id="clip0"><rect x="2855" y="1151" width="1548" height="1254"/></clipPath></defs><g clip-path="url(#clip0)" transform="translate(-2855 -1151)"><rect x="2855" y="1151" width="1548" height="1254" fill="#FFFFFF"/><g><path d="M3137.5 2103.57 4345.5 2103.57M3137.5 1968.56 4345.5 1968.56M3137.5 1832.56 4345.5 1832.56M3137.5 1696.56 4345.5 1696.56M3137.5 1560.55 4345.5 1560.55M3137.5 1425.5 4345.5 1425.5" stroke="#D9D9D9" stroke-width="3.4375" stroke-linejoin="round" stroke-miterlimit="10" fill="none"/></g><g><path d="M3236.11 2057.07 3327.11 2057.07 3327.11 2240 3236.11 2240ZM3639.12 2148.07 3729.12 2148.07 3729.12 2240 3639.12 2240ZM4042.13 2192.07 4132.14 2192.07 4132.14 2240 4042.13 2240Z" fill="#156082"/></g><g><path d="M3351.11 2029.07 3441.11 2029.07 3441.11 2240 3351.11 2240ZM3754.12 1900.06 3844.13 1900.06 3844.13 2240 3754.12 2240ZM4156.14 1515.05 4247.14 1515.05 4247.14 2240 4156.14 2240Z" fill="#E97132"/></g><g><path d="M0 0 0.000360892 814" stroke="#156082" stroke-width="3.4375" stroke-linejoin="round" stroke-miterlimit="10" fill="none" fill-rule="evenodd" transform="matrix(1 0 0 -1 3137.5 2239.5)"/></g><g><path d="M3137.5 2239.5 3150.5 2239.5M3137.5 2103.57 3150.5 2103.57M3137.5 1968.56 3150.5 1968.56M3137.5 1832.56 3150.5 1832.56M3137.5 1696.56 3150.5 1696.56M3137.5 1560.55 3150.5 1560.55M3137.5 1425.5 3150.5 1425.5" stroke="#156082" stroke-width="3.4375" stroke-linejoin="round" stroke-miterlimit="10" fill="none"/></g><g><path d="M3137.5 2239.5 4345.5 2239.5" stroke="#D9D9D9" stroke-width="3.4375" stroke-linejoin="round" stroke-miterlimit="10" fill="none" fill-rule="evenodd"/></g><g><path d="M3137.5 2226.5 3137.5 2239.5M3540.62 2226.5 3540.62 2239.5M3942.63 2226.5 3942.63 2239.5M4345.5 2226.5 4345.5 2239.5" stroke="#D9D9D9" stroke-width="3.4375" stroke-linejoin="round" stroke-miterlimit="10" fill="none"/></g><g><text font-family="Aptos Narrow,Aptos Narrow_MSFontService,sans-serif" font-weight="400" font-stretch="semi-condensed" font-size="41" transform="matrix(1 0 0 1 3070.95 2251)">0</text></g><g><text font-family="Aptos Narrow,Aptos Narrow_MSFontService,sans-serif" font-weight="400" font-stretch="semi-condensed" font-size="41" transform="matrix(1 0 0 1 3029.15 2115)">500</text></g><g><text font-family="Aptos Narrow,Aptos Narrow_MSFontService,sans-serif" font-weight="400" font-stretch="semi-condensed" font-size="41" transform="matrix(1 0 0 1 3008.25 1980)">1000</text></g><g><text font-family="Aptos Narrow,Aptos Narrow_MSFontService,sans-serif" font-weight="400" font-stretch="semi-condensed" font-size="41" transform="matrix(1 0 0 1 3008.25 1844)">1500</text></g><g><text font-family="Aptos Narrow,Aptos Narrow_MSFontService,sans-serif" font-weight="400" font-stretch="semi-condensed" font-size="41" transform="matrix(1 0 0 1 3008.25 1708)">2000</text></g><g><text font-family="Aptos Narrow,Aptos Narrow_MSFontService,sans-serif" font-weight="400" font-stretch="semi-condensed" font-size="41" transform="matrix(1 0 0 1 3008.25 1572)">2500</text></g><g><text font-family="Aptos Narrow,Aptos Narrow_MSFontService,sans-serif" font-weight="400" font-stretch="semi-condensed" font-size="41" transform="matrix(1 0 0 1 3008.25 1437)">3000</text></g><g><text font-family="Aptos Narrow,Aptos Narrow_MSFontService,sans-serif" font-weight="400" font-stretch="semi-condensed" font-size="41" transform="matrix(1 0 0 1 3324.69 2304)">1</text></g><g><text font-family="Aptos Narrow,Aptos Narrow_MSFontService,sans-serif" font-weight="400" font-stretch="semi-condensed" font-size="41" transform="matrix(1 0 0 1 3727.38 2304)">2</text></g><g><text font-family="Aptos Narrow,Aptos Narrow_MSFontService,sans-serif" font-weight="400" font-stretch="semi-condensed" font-size="41" transform="matrix(1 0 0 1 4130.07 2304)">4</text></g><g><text font-family="SimSun,SimSun_MSFontService,sans-serif" font-weight="700" font-size="41" transform="matrix(1 0 0 1 3670.85 2358)">并发度</text></g><g><text font-family="SimSun,SimSun_MSFontService,sans-serif" font-weight="700" font-size="55" transform="matrix(1 0 0 1 3247.29 1234)">平均单次系统调用所耗时钟周期</text></g><g><rect x="3729" y="1336" width="17.9998" height="17.9999" fill="#156082"/></g><g><g><text fill="#595959" font-family="SimSun,SimSun_MSFontService,sans-serif" font-weight="700" font-size="41" transform="matrix(1 0 0 1 3754.95 1360)">持续性注册</text></g></g><g><rect x="4030" y="1336" width="17.9998" height="17.9999" fill="#E97132"/></g><g><g><text fill="#595959" font-family="SimSun,SimSun_MSFontService,sans-serif" font-weight="700" font-size="41" transform="matrix(1 0 0 1 4055.86 1360)">一次性注册</text></g></g><g><text font-family="SimSun,SimSun_MSFontService,sans-serif" font-weight="700" font-size="41" transform="matrix(1 0 0 1 2892.32 1352)">时钟周期</text></g><g><text font-family="SimSun,SimSun_MSFontService,sans-serif" font-weight="700" font-size="41" transform="matrix(1 0 0 1 3057.96 1352)">(</text></g><g><text font-family="SimSun,SimSun_MSFontService,sans-serif" font-weight="700" font-size="41" transform="matrix(1 0 0 1 3078.75 1352)">万个</text></g><g><text font-family="SimSun,SimSun_MSFontService,sans-serif" font-weight="700" font-size="41" transform="matrix(1 0 0 1 3161.57 1352)">)</text></g></g></svg>